{"asset":{"version":"2.0","generator":"VECTARY"},"scene":0,"extensionsUsed":["KHR_texture_transform"],"nodes":[{"translation":[0,0,0],"scale":[0.0026216320000000005,0.0026216320000000005,0.0028726646090561623],"rotation":[0,0,0,1],"name":"thumb03","mesh":0}],"materials":[{"pbrMetallicRoughness":{"baseColorFactor":[1,1,1,1],"metallicFactor":0,"roughnessFactor":0.2},"name":"thumb03 material","emissiveFactor":[0,0,0],"alphaMode":"OPAQUE","doubleSided":false}],"meshes":[{"primitives":[{"mode":4,"attributes":{"POSITION":1,"NORMAL":2,"TEXCOORD_0":3},"material":0,"indices":0}]}],"accessors":[{"bufferView":0,"byteOffset":0,"componentType":5125,"count":11976,"type":"SCALAR"},{"bufferView":1,"byteOffset":0,"componentType":5126,"count":11976,"max":[7.9305901527404785,7.9305901527404785,1],"min":[-8.06941032409668,-8.06941032409668,0],"type":"VEC3"},{"bufferView":2,"byteOffset":0,"componentType":5126,"count":11976,"type":"VEC3"},{"bufferView":3,"byteOffset":0,"componentType":5126,"count":11976,"type":"VEC2"}],"bufferViews":[{"buffer":0,"byteOffset":0,"byteLength":47904,"target":34963},{"buffer":0,"byteOffset":47904,"byteLength":143712,"target":34962},{"buffer":0,"byteOffset":191616,"byteLength":143712,"target":34962},{"buffer":0,"byteOffset":335328,"byteLength":95808,"target":34962}],"scenes":[{"nodes":[0],"name":"Project Name"}],"buffers":[{"byteLength":431136,"uri":"ProjectName.bin"}]}